# xmcd
#
# Track frame offsets:
#	150
#	17321
#	35263
#	53583
#	69946
#	89076
#	103800
#	122413
#	140735
#	157541
#	175713
#
# Disc length: 2598 seconds
#
# Revision: 1
# Processed by: cddbd v1.5.2PL0 Copyright (c) Steve Scherf et al.
# Submitted via: EasyCDDAExtractor 15.3.0.1
#
DISCID=7d0a240b
DTITLE=Ricardo Montaner - Con La London Metropolitan Orchestra Vol. 2
DYEAR=2004
DGENRE=Latin
TTITLE0=Desesperado
TTITLE1=Besame
TTITLE2=Quisiera
TTITLE3=Esta Escrito
TTITLE4=Resumiendo
TTITLE5=La Clave Del Amor
TTITLE6=Soy Tuyo
TTITLE7=En Que Queda
TTITLE8=La Mujer De Mi Vida
TTITLE9=Yo Puedo Hacer
TTITLE10=Amarte Es Mi Pecado (Bonus Track)
EXTD=
EXTT0=
EXTT1=
EXTT2=
EXTT3=
EXTT4=
EXTT5=
EXTT6=
EXTT7=
EXTT8=
EXTT9=
EXTT10=
PLAYORDER=
